<svg id="Capa_1" enable-background="new 0 0 512 512" height="512" viewBox="0 0 512 512" width="512" xmlns="http://www.w3.org/2000/svg"><g><g><path d="m423.67 119.314c-.86 0-1.714.024-2.568.048-.76.819-1.538 1.627-2.335 2.424-8.456 8.456-18.2 14.827-28.596 19.141 26.577 19.485 46.184 47.91 54.392 80.849 26.841-6.503 48.897-25.24 59.938-49.982-13.798-30.919-44.787-52.48-80.831-52.48z" fill="#09a76d"/><path d="m423.67 119.314c-.86 0-1.714.024-2.568.048-.76.819-1.538 1.627-2.335 2.424-8.456 8.456-18.2 14.827-28.596 19.141 2.964 2.173 5.843 4.455 8.628 6.844 7.043-1.808 14.424-2.774 22.032-2.774 31.715 0 59.511 16.698 75.131 41.77 3.305-4.68 6.179-9.686 8.539-14.974-13.798-30.918-44.787-52.479-80.831-52.479z" fill="#02905d"/></g><g><path d="m329.982 99.018c2.879 5.764 5.355 11.715 7.43 17.814 19.373 4.398 37.25 12.725 52.758 24.095 10.396-4.314 20.141-10.685 28.596-19.141 25.487-25.487 32.153-62.646 20.047-94.264-31.618-12.106-68.777-5.44-94.264 20.047-5.824 5.824-10.653 12.262-14.512 19.099 2.793 9.735 2.721 20.865-.055 32.35z" fill="#09a76d"/><path d="m329.982 99.018c2.879 5.764 5.355 11.715 7.43 17.814.841.191 1.676.394 2.511.599 2.676-18.126 10.982-35.579 24.937-49.533 21.319-21.319 50.803-29.46 78.381-24.471-.975-5.4-2.444-10.728-4.427-15.906-31.618-12.106-68.777-5.44-94.264 20.047-5.824 5.824-10.653 12.262-14.512 19.099 2.792 9.737 2.72 20.866-.056 32.351z" fill="#02905d"/></g><path d="m162.321 256.52c0-79.113 64.134-143.247 143.247-143.247 10.945 0 21.602 1.233 31.844 3.558-2.075-6.099-4.55-12.049-7.43-17.814 4.807-19.887 1.561-38.738-10.761-51.06s-31.173-15.567-51.06-10.761c-61.576-30.757-144.376-15.463-202.506 42.668-58.131 58.13-73.425 140.929-42.667 202.506-4.807 19.887-1.561 38.738 10.761 51.06s31.173 15.567 51.06 10.761c34.394 17.18 75.409 19.986 115.048 8.992-23.311-25.478-37.536-59.408-37.536-96.663z" fill="#fac600"/><g><g><path d="m75.249 343.707c-12.322-12.322-15.567-31.173-10.761-51.06-30.758-61.577-15.463-144.377 42.667-202.507 43.106-43.106 99.776-62.649 151.299-57.334-60.36-24.665-137.672-8.07-192.799 47.058-58.13 58.13-73.425 140.929-42.667 202.506-4.807 19.887-1.561 38.738 10.761 51.06 10.763 10.763 26.509 14.599 43.575 12.194-.708-.616-1.405-1.247-2.075-1.917z" fill="#e8b800"/></g></g><g><path d="m305.568 113.274c-79.113 0-143.247 64.134-143.247 143.247 0 73.526 55.399 134.103 126.731 142.293-1.594-2.479-3.735-4.643-6.397-6.266-9.796-5.973-17.072-15.663-19.878-27.11 13.231 5.335 27.673 8.279 42.791 8.279 15.112 0 29.548-2.942 42.774-8.272-2.788 11.36-9.965 20.994-19.652 26.975-2.7 1.667-4.886 3.869-6.516 6.384 71.288-8.232 126.64-68.788 126.64-142.283 0-79.114-64.133-143.247-143.246-143.247z" fill="#fedf30"/><path d="m328.69 392.419c9.687-5.981 16.864-15.615 19.652-26.975-13.226 5.331-27.662 8.272-42.774 8.272-15.118 0-29.56-2.944-42.791-8.279 2.806 11.447 10.082 21.137 19.878 27.11 8.915 5.436 12.126 16.853 7.729 26.323l-12.811 27.592c-9.498 20.458 5.44 43.862 27.995 43.862 22.555 0 37.493-23.405 27.995-43.862l-12.813-27.597c-4.437-9.554-1.024-20.911 7.94-26.446z" fill="#fff5c6"/><path d="m298.025 446.463 12.811-27.592c4.397-9.471 1.186-20.887-7.729-26.323-7.88-4.805-14.129-12.016-17.734-20.611-7.835-1.396-15.394-3.595-22.596-6.5 2.806 11.447 10.082 21.137 19.878 27.11 8.915 5.436 12.126 16.853 7.729 26.323l-12.811 27.592c-9.498 20.458 5.44 43.862 27.995 43.862 3.631 0 7.06-.614 10.226-1.717-16.501-5.747-25.738-24.979-17.769-42.144z" fill="#fef0ae"/><g><circle cx="305.568" cy="258.93" fill="#fff5c6" r="114.787"/></g><g><path d="m221.959 258.93c0-58.006 43.252-106.094 99.198-113.724-5.099-.696-10.302-1.063-15.589-1.063-63.294 0-114.787 51.493-114.787 114.787s51.493 114.787 114.787 114.787c5.287 0 10.49-.367 15.589-1.063-55.946-7.631-99.198-55.718-99.198-113.724z" fill="#fef0ae"/></g><g><circle cx="305.568" cy="258.93" fill="#fff" r="20.042"/></g></g><path d="m511.349 168.737c-13.739-30.787-42.53-51.858-75.378-56.114 3.461-5.166 6.41-10.666 8.824-16.464 1.592-3.824-.218-8.214-4.042-9.806-3.821-1.592-8.214.218-9.806 4.042-4.07 9.779-9.953 18.556-17.482 26.086-6.641 6.641-14.261 11.947-22.468 15.841-9.481-6.53-19.633-11.931-30.266-16.11l53.154-53.154c2.929-2.929 2.929-7.678 0-10.606-2.929-2.93-7.678-2.929-10.606 0l-58.508 58.508c-.565-.152-1.127-.316-1.694-.462-1.558-4.222-3.275-8.368-5.197-12.402 2.247-10.745 2.257-20.992.189-30.21 3.284-5.381 7.208-10.435 11.786-15.014 21.773-21.772 54.056-29.245 83.099-19.489 2.763 8.226 4.176 16.816 4.206 25.585.014 4.133 3.369 7.475 7.5 7.475h.026c4.142-.014 7.489-3.383 7.475-7.525-.04-11.729-2.173-23.194-6.339-34.078-.762-1.989-2.333-3.561-4.323-4.323-35.361-13.537-75.498-5.002-102.249 21.749-2.848 2.848-5.483 5.851-7.912 8.981-1.942-3.105-4.206-5.988-6.81-8.592-13.185-13.185-33.272-17.989-55.442-13.353-31.136-14.832-68.289-18.904-104.96-11.455-38.638 7.849-74.521 27.46-103.774 56.713s-48.864 65.137-56.713 103.771c-7.45 36.672-3.377 73.824 11.455 104.96-4.636 22.168.167 42.257 13.353 55.442 13.184 13.185 33.271 17.991 55.441 13.353 12.904 6.153 26.821 10.489 41.41 12.9 4.084.683 7.947-2.089 8.623-6.177.675-4.086-2.09-7.947-6.177-8.623-14.027-2.318-27.344-6.592-39.581-12.705-1.583-.791-3.394-.998-5.114-.581-18.026 4.357-34.062 1.159-43.995-8.774s-13.131-25.968-8.774-43.995c.416-1.72.21-3.531-.581-5.114-14.306-28.641-18.34-63.338-11.359-97.701 7.26-35.739 25.456-68.987 52.62-96.151s60.412-45.359 96.15-52.62c34.365-6.98 69.063-2.946 97.702 11.359 1.583.79 3.393.996 5.114.581 18.026-4.356 34.062-1.159 43.995 8.774s13.13 25.968 8.774 43.995c-.416 1.719-.21 3.531.581 5.113.777 1.556 1.513 3.136 2.228 4.728-6.57-.873-13.227-1.324-19.934-1.324-83.122 0-150.747 67.625-150.747 150.747 0 34.717 11.803 66.722 31.6 92.23-8.36 1.711-16.825 2.805-25.342 3.247-4.136.214-7.316 3.742-7.101 7.878.208 4.004 3.519 7.111 7.483 7.111.131 0 .263-.003.395-.01 12.054-.625 24.004-2.462 35.723-5.403 22.693 23.314 52.843 39.336 86.561 44.156 1.068 3.143.96 6.712-.559 9.984l-12.811 27.592c-5.544 11.941-4.626 25.697 2.458 36.795 7.083 11.099 19.173 17.725 32.34 17.725s25.256-6.626 32.339-17.725c7.083-11.098 8.002-24.854 2.458-36.796l-12.813-27.597c-1.507-3.246-1.583-6.819-.472-9.988 28.818-4.147 55.951-16.565 78.03-35.997 27.254-23.987 44.945-56.915 49.813-92.717.558-4.104-2.317-7.884-6.421-8.442-4.106-.557-7.884 2.317-8.442 6.421-4.382 32.228-20.313 61.874-44.859 83.478-14.169 12.47-30.654 21.72-48.35 27.365 3.376-4.498 5.994-9.515 7.736-14.88 43.094-18.931 73.268-62.014 73.268-112.02 0-67.429-54.858-122.287-122.287-122.287s-122.289 54.863-122.289 122.292c0 50.02 30.192 93.114 73.305 112.036 1.753 5.363 4.381 10.392 7.764 14.902-54.762-17.49-94.529-68.861-94.529-129.348 0-74.851 60.896-135.747 135.747-135.747 33.691 0 65.999 12.429 90.972 34.997 24.795 22.407 40.414 52.959 43.978 86.03.444 4.118 4.139 7.092 8.261 6.653 4.118-.444 7.097-4.143 6.653-8.261-.478-4.439-1.157-8.836-2.02-13.182 25.373-8.294 46.697-26.971 57.938-52.162.867-1.943.867-4.166-.001-6.111zm-186.599 217.301c-12.19 7.526-16.834 22.997-10.803 35.987l12.813 27.597c3.377 7.273 2.817 15.65-1.497 22.41s-11.677 10.794-19.695 10.794-15.381-4.036-19.695-10.795-4.874-15.136-1.497-22.409l12.811-27.592c6.065-13.065 1.497-28.492-10.627-35.885-3.659-2.231-6.806-5.049-9.402-8.267 9.121 2.178 18.632 3.339 28.41 3.339 9.797 0 19.325-1.165 28.461-3.352-2.566 3.168-5.673 5.946-9.279 8.173zm-11.682-20.088v-80.525c2.087-.592 4.073-1.421 5.928-2.461l56.911 56.911c-17.08 14.861-38.89 24.413-62.839 26.075zm73.445-36.681-56.911-56.911c1.04-1.855 1.87-3.841 2.461-5.928h80.525c-1.661 23.949-11.214 45.759-26.075 62.839zm26.076-77.839h-80.525c-.592-2.087-1.421-4.073-2.461-5.928l56.911-56.911c14.86 17.079 24.413 38.89 26.075 62.839zm-99.521-99.521c23.949 1.662 45.759 11.214 62.839 26.075l-56.911 56.911c-1.855-1.04-3.841-1.87-5.928-2.461zm5.042 107.021c0 6.916-5.626 12.542-12.542 12.542s-12.542-5.626-12.542-12.542 5.626-12.542 12.542-12.542c6.915-.001 12.542 5.626 12.542 12.542zm-20.042-107.021v80.525c-2.087.592-4.073 1.421-5.928 2.461l-56.911-56.911c17.079-14.86 38.89-24.413 62.839-26.075zm-73.446 36.682 56.911 56.911c-1.04 1.855-1.87 3.841-2.461 5.928h-80.525c1.662-23.949 11.215-45.76 26.075-62.839zm-26.075 77.839h80.525c.592 2.087 1.421 4.073 2.461 5.928l-56.911 56.911c-14.861-17.08-24.413-38.89-26.075-62.839zm36.682 73.445 56.911-56.911c1.855 1.04 3.841 1.87 5.928 2.461v80.525c-23.949-1.662-45.76-11.214-62.839-26.075zm214.514-127.445c-3.547-11.612-8.482-22.735-14.695-33.137h26.695c4.142 0 7.5-3.358 7.5-7.5s-3.358-7.5-7.5-7.5h-36.934c-5.44-7.024-11.522-13.607-18.211-19.651-.839-.758-1.693-1.495-2.547-2.232 7.218-4.144 13.962-9.264 20.019-15.321.086-.086.165-.177.251-.263 30.536.246 58.348 17.726 71.889 44.967-9.642 19.397-26.523 33.835-46.467 40.637z"/></g></svg>