<?xml version="1.0" standalone="no"?>
<!DOCTYPE svg PUBLIC "-//W3C//DTD SVG 20010904//EN"
 "http://www.w3.org/TR/2001/REC-SVG-20010904/DTD/svg10.dtd">
<svg version="1.0" xmlns="http://www.w3.org/2000/svg"
 width="512.000000pt" height="512.000000pt" viewBox="0 0 512.000000 512.000000"
 preserveAspectRatio="xMidYMid meet">

<g transform="translate(0.000000,512.000000) scale(0.100000,-0.100000)"
fill="#000000" stroke="none">
<path d="M2347 5105 c-260 -37 -509 -140 -723 -298 -87 -64 -255 -233 -314
-315 -210 -291 -310 -601 -310 -963 l0 -119 599 0 599 0 4 118 c3 102 7 125
32 178 34 77 103 144 181 181 51 24 73 28 145 28 72 0 94 -4 145 -28 78 -36
146 -104 182 -181 24 -52 28 -74 28 -146 0 -72 -4 -94 -28 -145 -15 -33 -42
-75 -60 -94 -18 -18 -220 -193 -449 -388 l-418 -355 0 -539 0 -539 600 0 600
0 1 263 0 262 225 190 c316 266 429 391 547 605 151 274 214 620 172 942 -45
346 -195 649 -445 898 -234 235 -506 378 -830 436 -120 22 -363 27 -483 9z
m370 -296 c371 -50 692 -250 895 -559 263 -399 275 -919 32 -1331 -92 -154
-181 -246 -492 -509 l-291 -245 0 -182 -1 -183 -300 0 -300 0 0 319 0 319 358
303 c196 167 382 329 413 360 70 71 120 152 155 254 25 71 28 94 28 205 0 109
-3 134 -26 201 -94 267 -318 441 -593 456 -209 12 -427 -86 -552 -248 -46 -60
-94 -152 -114 -216 l-12 -43 -304 0 -305 0 7 43 c106 670 739 1147 1402 1056z"/>
<path d="M2412 1180 c-109 -29 -187 -74 -272 -160 -87 -86 -131 -163 -160
-276 -36 -141 -18 -294 52 -427 42 -81 164 -203 245 -245 133 -70 286 -88 427
-52 113 29 190 73 276 160 87 86 131 163 160 276 36 141 18 294 -52 427 -42
81 -164 203 -245 245 -132 69 -291 88 -431 52z m282 -314 c105 -51 161 -144
161 -266 0 -85 -21 -142 -74 -203 -82 -92 -237 -121 -353 -64 -160 79 -215
278 -118 430 80 126 246 170 384 103z"/>
</g>
</svg>
